<?xml version="1.0" encoding="UTF-8"?>
<svg xmlns="http://www.w3.org/2000/svg" version="1.1" xmlns:xlink="http://www.w3.org/1999/xlink" viewBox="0 0 595.28 841.89">
  <defs>
    <style>
      .cls-1 {
        fill: #a5ddee;
      }

      .cls-2 {
        fill: #64c4a8;
      }

      .cls-3 {
        fill: #d9def0;
      }

      .cls-4 {
        fill: url(#linear-gradient);
      }
    </style>
    <linearGradient id="linear-gradient" x1="55.69" y1="192.1" x2="55.69" y2="393.01" gradientUnits="userSpaceOnUse">
      <stop offset=".29" stop-color="#45778c"/>
      <stop offset="1" stop-color="#8fcea5"/>
    </linearGradient>
  </defs>
  <!-- Generator: Adobe Illustrator 28.6.0, SVG Export Plug-In . SVG Version: 1.2.0 Build 709)  -->
  <g>
    <g id="Layer_1">
      <g>
        <g>
          <g>
            <path class="cls-1" d="M175.5,290.61l-2.54,1.19-10-20.45h-74.33l-10,20.45-2.54-1.19,48.36-98.51h2.69l48.36,98.51ZM90.13,268.52h71.34l-35.67-72.69-35.67,72.69Z"/>
            <path class="cls-1" d="M254.46,218.97v71.34h-2.84v-14.93c-5.97,11.04-17.61,17.16-32.39,17.16-20.3,0-31.49-12.84-31.49-32.98v-40.6h2.84v40.6c0,18.36,10.15,30.15,28.66,30.15,16.27,0,27.61-7.91,32.39-20.6v-50.15h2.84Z"/>
            <path class="cls-1" d="M275.36,290.31v-71.34h2.84v15.37c4.93-10.75,15.22-16.87,27.91-16.87,17.61,0,28.36,10.45,29.85,27.01h-2.84c-1.49-14.78-11.19-24.18-27.02-24.18-14.18,0-23.73,8.06-27.91,20.3v49.7h-2.84Z"/>
            <path class="cls-1" d="M388.94,292.55c-20.6,0-37.46-16.87-37.46-37.61s16.72-37.46,37.46-37.46,37.61,16.72,37.61,37.46-16.87,37.61-37.61,37.61ZM388.94,220.31c-19.1,0-34.48,15.52-34.48,34.63s15.37,34.77,34.48,34.77,34.63-15.52,34.63-34.77-15.52-34.63-34.63-34.63Z"/>
            <path class="cls-1" d="M445.51,290.31v-71.34h2.84v15.37c4.92-10.75,15.22-16.87,27.91-16.87,17.61,0,28.36,10.45,29.85,27.01h-2.84c-1.49-14.78-11.19-24.18-27.01-24.18-14.18,0-23.73,8.06-27.91,20.3v49.7h-2.84Z"/>
            <path class="cls-1" d="M588.5,290.31v-13.58c-5.97,9.7-17.31,15.82-30.3,15.82-19.85,0-36.57-16.87-36.57-37.61s16.72-37.46,36.57-37.46c12.98,0,24.33,6.27,30.3,15.97v-14.48h2.84v71.34h-2.84ZM588.5,270.76v-30.89c-3.88-10.75-15.82-19.55-30.3-19.55-18.21,0-33.58,15.52-33.58,34.63s15.37,34.77,33.58,34.77c14.48,0,26.42-8.36,30.3-18.95Z"/>
          </g>
          <g>
            <path class="cls-2" d="M175.5,290.61l-2.54,1.19-10-20.45h-74.33l-10,20.45-2.54-1.19,48.36-98.51h2.69l48.36,98.51ZM90.13,268.52h71.34l-35.67-72.69-35.67,72.69Z"/>
            <path class="cls-2" d="M254.46,218.97v71.34h-2.84v-14.93c-5.97,11.04-17.61,17.16-32.39,17.16-20.3,0-31.49-12.84-31.49-32.98v-40.6h2.84v40.6c0,18.36,10.15,30.15,28.66,30.15,16.27,0,27.61-7.91,32.39-20.6v-50.15h2.84Z"/>
            <path class="cls-2" d="M275.36,290.31v-71.34h2.84v15.37c4.93-10.75,15.22-16.87,27.91-16.87,17.61,0,28.36,10.45,29.85,27.01h-2.84c-1.49-14.78-11.19-24.18-27.02-24.18-14.18,0-23.73,8.06-27.91,20.3v49.7h-2.84Z"/>
            <path class="cls-2" d="M388.94,292.55c-20.6,0-37.46-16.87-37.46-37.61s16.72-37.46,37.46-37.46,37.61,16.72,37.61,37.46-16.87,37.61-37.61,37.61ZM388.94,220.31c-19.1,0-34.48,15.52-34.48,34.63s15.37,34.77,34.48,34.77,34.63-15.52,34.63-34.77-15.52-34.63-34.63-34.63Z"/>
            <path class="cls-2" d="M445.51,290.31v-71.34h2.84v15.37c4.92-10.75,15.22-16.87,27.91-16.87,17.61,0,28.36,10.45,29.85,27.01h-2.84c-1.49-14.78-11.19-24.18-27.01-24.18-14.18,0-23.73,8.06-27.91,20.3v49.7h-2.84Z"/>
            <path class="cls-2" d="M588.5,290.31v-13.58c-5.97,9.7-17.31,15.82-30.3,15.82-19.85,0-36.57-16.87-36.57-37.61s16.72-37.46,36.57-37.46c12.98,0,24.33,6.27,30.3,15.97v-14.48h2.84v71.34h-2.84ZM588.5,270.76v-30.89c-3.88-10.75-15.82-19.55-30.3-19.55-18.21,0-33.58,15.52-33.58,34.63s15.37,34.77,33.58,34.77c14.48,0,26.42-8.36,30.3-18.95Z"/>
          </g>
        </g>
        <g>
          <path class="cls-3" d="M163.36,333.91h13.25c18.27,0,26.51,11.82,26.51,29.37s-8.24,29.73-26.51,29.73h-13.25v-59.1ZM176.25,390.5c16.83,0,23.82-11.64,23.82-27.22s-6.99-26.86-23.82-26.86h-10.03v54.08h10.03Z"/>
          <path class="cls-3" d="M235,333.91h31.7v2.51h-28.83v23.82h24.18v2.51h-24.18v27.76h29.73v2.51h-32.59v-59.1Z"/>
          <path class="cls-3" d="M293.93,385.13l1.97-1.97c4.3,5.01,10.57,8.24,17.73,8.24,9.49,0,15.58-5.19,15.58-12.72s-5.01-10.39-10.92-13.07l-9.13-4.12c-5.02-2.24-12-5.73-12-14.51s7.16-14.15,16.66-14.15c7.16,0,12.72,3.31,16.12,6.98l-1.79,1.97c-3.4-3.76-8.24-6.27-14.33-6.27-8.24,0-13.79,4.48-13.79,11.28,0,7.34,6.18,10.12,10.39,12l9.13,4.12c6.54,2.95,12.54,6.45,12.54,15.58s-7.34,15.58-18.45,15.58c-8.78,0-15.22-3.76-19.7-8.95Z"/>
          <path class="cls-3" d="M362.7,333.91h2.87v59.1h-2.87v-59.1Z"/>
          <path class="cls-3" d="M397.45,363.28c0-18.62,10.21-30.44,25.79-30.44,7.88,0,12.72,3.76,15.76,6.98l-1.79,1.97c-3.04-3.4-7.34-6.27-13.97-6.27-14.15,0-22.74,10.74-22.74,27.76s8.24,28.12,22.03,28.12c5.73,0,11.1-1.79,14.15-4.84v-19.52h-14.69v-2.51h17.55v22.92c-3.58,3.94-9.49,6.63-17.19,6.63-15.04,0-24.89-12.18-24.89-30.8Z"/>
          <path class="cls-3" d="M473.03,333.91h3.04l26.15,43.34,6.8,11.64h.36c-.18-5.73-.36-11.1-.36-16.66v-38.32h2.69v59.1h-3.04l-26.15-43.34-6.81-11.64h-.36c.18,5.55.36,10.57.36,16.12v38.86h-2.68v-59.1Z"/>
        </g>
        <rect class="cls-4" x="50.92" y="192.1" width="9.53" height="200.91"/>
      </g>
    </g>
  </g>
</svg>